<svg preserveAspectRatio="none" overflow="visible" style="display: block;" width="369.072" height="238" viewBox="0 0 369.072 238" fill="none" xmlns="http://www.w3.org/2000/svg">
<g id="Ellipse 43675" filter="url(#filter0_dii_0_11)">
<path d="M4 230C4 188.012 15.494 146.825 37.2359 110.904C58.9779 74.9831 90.138 45.6994 127.338 26.2275C164.539 6.75555 206.359 -2.16153 248.267 0.442975C290.174 3.04748 330.569 17.0742 365.072 41.0024L357.208 52.3422C324.775 29.8497 286.804 16.6646 247.411 14.2164C208.018 11.7682 168.706 20.1502 133.738 38.4538C98.7698 56.7574 69.4792 84.2841 49.0418 118.05C28.6044 151.815 17.8 190.531 17.8 230L4 230Z" fill="#2DC0CB"/>
</g>
<defs>
<filter id="filter0_dii_0_11" x="0" y="-3" width="369.072" height="241" filterUnits="userSpaceOnUse" color-interpolation-filters="sRGB">
<feFlood flood-opacity="0" result="BackgroundImageFix"/>
<feColorMatrix in="SourceAlpha" type="matrix" values="0 0 0 0 0 0 0 0 0 0 0 0 0 0 0 0 0 0 127 0" result="hardAlpha"/>
<feOffset dy="4"/>
<feGaussianBlur stdDeviation="2"/>
<feComposite in2="hardAlpha" operator="out"/>
<feColorMatrix type="matrix" values="0 0 0 0 0 0 0 0 0 0 0 0 0 0 0 0 0 0 0.2 0"/>
<feBlend mode="normal" in2="BackgroundImageFix" result="effect1_dropShadow_0_11"/>
<feBlend mode="normal" in="SourceGraphic" in2="effect1_dropShadow_0_11" result="shape"/>
<feColorMatrix in="SourceAlpha" type="matrix" values="0 0 0 0 0 0 0 0 0 0 0 0 0 0 0 0 0 0 127 0" result="hardAlpha"/>
<feOffset dy="-3"/>
<feGaussianBlur stdDeviation="2"/>
<feComposite in2="hardAlpha" operator="arithmetic" k2="-1" k3="1"/>
<feColorMatrix type="matrix" values="0 0 0 0 1 0 0 0 0 1 0 0 0 0 1 0 0 0 0.25 0"/>
<feBlend mode="normal" in2="shape" result="effect2_innerShadow_0_11"/>
<feColorMatrix in="SourceAlpha" type="matrix" values="0 0 0 0 0 0 0 0 0 0 0 0 0 0 0 0 0 0 127 0" result="hardAlpha"/>
<feOffset dy="4"/>
<feGaussianBlur stdDeviation="2"/>
<feComposite in2="hardAlpha" operator="arithmetic" k2="-1" k3="1"/>
<feColorMatrix type="matrix" values="0 0 0 0 1 0 0 0 0 1 0 0 0 0 1 0 0 0 0.5 0"/>
<feBlend mode="normal" in2="effect2_innerShadow_0_11" result="effect3_innerShadow_0_11"/>
</filter>
</defs>
</svg>
